#!OML:ASF H:\GeneralSubjects\Female5\Project 1\Capture day 1\Session 1\Female5.ASF
:FULLY-SPECIFIED
:DEGREES
597
root -4.24508 15.7031 -3.81447 333.661 72.7712 687.355
lowerback 8.69534 -1.18595 0.974712
upperback -12.1616 -0.414096 4.05769
thorax -18.9005 0.281701 4.23267
lowerneck -12.9658 -2.45639 3.35745
upperneck 32.8999 -5.72994 5.86739
head 13.3646 -0.951507 0.948051
rclavicle 1.56294e-014 3.68249e-014
rhumerus -64.4208 11.8782 -80.9221
rradius 26.3138
rwrist -12.4676
rhand -12.3458 -22.0973
rfingers 7.12502
rthumb 13.7237 -51.6247
lclavicle 1.56294e-014 3.68249e-014
lhumerus -51.524 -12.1971 100.075
lradius 32.3816
lwrist -12.8811
lhand -17.3681 30.3944
lfingers 7.12502
lthumb 8.88018 60.1876
rfemur -7.78213 4.27632 41.6148
rtibia 5.41426
rfoot -17.6446 -13.5428
rtoes -3.45835
lfemur 2.25573 1.86737 -10.9597
ltibia 49.3929
lfoot -1.37728 17.0292
ltoes -66.9673
598
root -4.0685 15.6587 -3.71415 331.745 72.3574 685.128
lowerback 8.80403 -1.08542 1.75895
upperback -12.2219 -0.0901861 4.19202
thorax -19.0901 0.343412 3.87707
lowerneck -12.8104 -2.64051 2.91829
upperneck 32.9049 -5.81175 5.69161
head 13.3339 -1.07067 0.943583
rclavicle -4.22417e-016 -2.94201e-014
rhumerus -64.3657 13.2797 -82.0824
rradius 28.232
rwrist -13.85
rhand -13.7989 -22.301
rfingers 7.12502
rthumb 12.323 -51.9179
lclavicle -4.22417e-016 -2.94201e-014
lhumerus -51.1131 -11.6462 99.1322
lradius 32.4131
lwrist -12.697
lhand -18.0063 31.779
lfingers 7.12502
lthumb 8.26426 61.5974
rfemur -6.89947 4.16872 42.7744
rtibia 4.8154
rfoot -17.9286 -13.197
rtoes -3.74964
lfemur -1.35573 3.60597 -9.19838
ltibia 53.377
lfoot -4.51391 18.3634
ltoes -65.6498
599
root -3.90372 15.6108 -3.6164 329.645 71.8887 682.64
lowerback 8.94377 -0.97845 2.55671
upperback -12.3153 0.270323 4.402
thorax -19.3469 0.430045 3.59635
lowerneck -12.4046 -2.72943 2.5756
upperneck 32.7058 -5.76925 5.58335
head 13.1596 -1.12732 0.967335
rclavicle 1.77415e-014 -2.48481e-014
rhumerus -63.8801 14.5709 -82.828
rradius 29.3598
rwrist -14.7561
rhand -16.1986 -20.536
rfingers 7.12502
rthumb 10.0086 -50.2781
lclavicle 1.77415e-014 -2.48481e-014
lhumerus -50.6192 -10.7869 97.9426
lradius 32.2207
lwrist -12.83
lhand -19.7477 32.2612
lfingers 7.12502
lthumb 6.58335 62.1388
rfemur -6.07551 4.16622 44.0273
rtibia 4.14737
rfoot -18.1789 -12.9974
rtoes -3.81468
lfemur -5.26842 5.06223 -7.58479
ltibia 56.802
lfoot -7.44967 19.9733
ltoes -66.4409
600
root -3.73144 15.5736 -3.52544 327.822 71.3767 680.61
lowerback 9.10209 -0.816619 3.22888
upperback -12.299 0.678715 4.62853
thorax -19.4672 0.550761 3.38695
lowerneck -11.9237 -2.89826 1.95245
upperneck 32.2347 -5.76628 5.46982
head 12.8624 -1.2547 1.02724
rclavicle 4.79568e-015 -1.74931e-014
rhumerus -63.0102 15.8501 -83.3313
rradius 30.0762
rwrist -15.562
rhand -18.958 -19.3928
rfingers 7.12502
rthumb 7.34572 -49.2453
lclavicle 4.79568e-015 -1.74931e-014
lhumerus -49.8899 -9.85436 96.7394
lradius 31.8566
lwrist -12.7992
lhand -21.9476 32.7795
lfingers 7.12502
lthumb 4.45939 62.7126
rfemur -5.11796 3.99183 45.1038
rtibia 3.57039
rfoot -18.5283 -12.6213
rtoes -3.45793
lfemur -9.14752 6.35782 -6.33632
ltibia 59.6732
lfoot -11.316 18.6787
ltoes -65.3784
601
root -3.55582 15.545 -3.43826 326.997 71.0856 679.71
lowerback 9.299 -0.621812 3.4644
upperback -12.2376 1.02703 4.75227
thorax -19.5421 0.689728 3.31376
lowerneck -12.109 -3.00463 1.3249
upperneck 32.5357 -5.74276 5.35109
head 13.0389 -1.32049 1.09626
rclavicle 2.76559e-014 2.23633e-014
rhumerus -61.7667 17.0761 -83.636
rradius 30.5323
rwrist -16.2053
rhand -21.4915 -19.8193
rfingers 7.12502
rthumb 4.89973 -49.7427
lclavicle 2.76559e-014 2.23633e-014
lhumerus -49.1247 -8.69914 95.443
lradius 31.6273
lwrist -12.5847
lhand -23.7509 33.5748
lfingers 7.12502
lthumb 2.71794 63.5373
rfemur -4.08115 3.74163 45.674
rtibia 2.95942
rfoot -18.8948 -12.1704
rtoes -3.38866
lfemur -12.9323 7.34917 -5.88842
ltibia 61.8423
lfoot -14.2622 17.7413
ltoes -64.8147
602
root -3.37371 15.521 -3.35488 326.586 70.9693 679.3
lowerback 9.41376 -0.429686 3.46387
upperback -12.1224 1.30442 4.83229
thorax -19.4816 0.821218 3.33309
lowerneck -12.4454 -3.09164 1.09988
upperneck 32.8716 -5.65416 4.77724
head 13.232 -1.3685 0.924232
rclavicle -4.5969e-015 -5.62561e-014
rhumerus -59.9913 18.1103 -83.5355
rradius 30.3381
rwrist -16.3063
rhand -23.8286 -20.3093
rfingers 7.12502
rthumb 2.64289 -50.2727
lclavicle -4.5969e-015 -5.62561e-014
lhumerus -48.3129 -7.33508 94.051
lradius 31.4189
lwrist -12.4568
lhand -25.4008 33.8461
lfingers 7.12502
lthumb 1.12447 63.8229
rfemur -2.90588 3.02703 45.9347
rtibia 2.14889
rfoot -18.9541 -11.4972
rtoes -3.96675
lfemur -16.4235 7.9391 -5.99582
ltibia 63.0784
lfoot -16.7354 16.8941
ltoes -64.8596
603
root -3.19467 15.5041 -3.2759 325.791 70.8897 678.516
lowerback 9.57085 -0.279241 3.54234
upperback -12.01 1.55196 4.95698
thorax -19.4563 0.934477 3.36929
lowerneck -12.464 -3.17787 0.820175
upperneck 32.8439 -5.52693 4.23009
head 13.2027 -1.42613 0.775311
rclavicle -2.02512e-014 -1.42628e-014
rhumerus -57.9375 18.8939 -83.079
rradius 29.6655
rwrist -15.8502
rhand -25.8305 -20.672
rfingers 7.12502
rthumb 0.7095 -50.6506
lclavicle -2.02512e-014 -1.42628e-014
lhumerus -47.6172 -5.96902 92.7335
lradius 31.2569
lwrist -12.2452
lhand -26.5682 34.3859
lfingers 7.12502
lthumb -0.00307078 64.3656
rfemur -1.74906 1.90809 46.1962
rtibia 1.36383
rfoot -18.9128 -10.4872
rtoes -4.04369
lfemur -19.9019 8.2469 -6.15941
ltibia 63.7615
lfoot -19.2015 15.8114
ltoes -64.364
604
root -3.02728 15.4978 -3.19861 324.74 70.8495 677.448
lowerback 9.88132 -0.173637 3.67465
upperback -11.9326 1.76428 5.08147
thorax -19.584 1.0261 3.38878
lowerneck -12.1725 -3.24412 0.385799
upperneck 32.4739 -5.37582 3.88686
head 12.974 -1.48282 0.737719
rclavicle 1.53313e-014 2.92213e-014
rhumerus -55.6169 19.3291 -82.407
rradius 28.6439
rwrist -15.0527
rhand -27.0978 -20.91
rfingers 7.12502
rthumb -0.51459 -50.8891
lclavicle 1.53313e-014 2.92213e-014
lhumerus -47.1504 -4.70575 91.5143
lradius 31.3223
lwrist -11.6772
lhand -26.8648 35.3622
lfingers 7.12502
lthumb -0.289485 65.3418
rfemur -0.695143 1.425 46.5453
rtibia 0.678237
rfoot -19.1478 -10.0321
rtoes -4.14055
lfemur -23.5648 8.34895 -6.35148
ltibia 63.9757
lfoot -20.6518 16.3445
ltoes -64.3102
605
root -2.85375 15.4974 -3.1245 323.748 70.8925 676.362
lowerback 10.0839 -0.102777 3.88443
upperback -11.9103 1.93247 5.14207
thorax -19.7031 1.08055 3.3005
lowerneck -11.823 -3.27558 -0.112405
upperneck 32.092 -5.17966 3.60248
head 12.7346 -1.517 0.742871
rclavicle 1.46479e-014 -1.03368e-014
rhumerus -53.2418 19.4047 -81.6236
rradius 27.4451
rwrist -14.0288
rhand -27.5157 -21.344
rfingers 7.12502
rthumb -0.918198 -51.3218
lclavicle 1.46479e-014 -1.03368e-014
lhumerus -46.9199 -3.64377 90.409
lradius 31.6027
lwrist -10.6889
lhand -26.6219 36.474
lfingers 7.12502
lthumb -0.054952 66.4537
rfemur 0.310291 1.38764 46.8867
rtibia -0.0123939
rfoot -19.6307 -10.056
rtoes -4.02495
lfemur -27.194 8.25658 -6.74908
ltibia 63.4056
lfoot -21.411 17.9832
ltoes -65.6181
606
root -2.66869 15.5042 -3.05796 323.036 71.0004 675.442
lowerback 10.1894 -0.0203114 4.14571
upperback -12.0043 2.12877 5.15048
thorax -19.9085 1.13777 3.11761
lowerneck -11.6007 -3.36194 -0.549423
upperneck 31.8967 -5.00052 3.02638
head 12.5915 -1.57848 0.623826
rclavicle 5.69021e-015 -4.62174e-014
rhumerus -51.1835 19.176 -80.742
rradius 26.4373
rwrist -12.8471
rhand -27.4342 -22.3946
rfingers 7.12502
rthumb -0.839446 -52.3727
lclavicle 5.69021e-015 -4.62174e-014
lhumerus -46.9391 -2.70746 89.4293
lradius 31.9203
lwrist -9.63045
lhand -27.0272 37.2508
lfingers 7.12502
lthumb -0.446358 67.23
rfemur 1.1673 1.2011 47.0945
rtibia -0.53452
rfoot -20.0617 -9.9161
rtoes -4.05734
lfemur -30.5277 7.84579 -7.35637
ltibia 61.9464
lfoot -22.4972 18.1588
ltoes -66.3925
607
root -2.47856 15.5188 -2.99513 322.391 71.124 674.517
lowerback 10.2218 0.069993 4.41322
upperback -12.0991 2.3336 5.16109
thorax -20.0632 1.19763 2.92974
lowerneck -11.479 -3.49318 -1.00972
upperneck 31.598 -4.87931 2.40656
head 12.4307 -1.67632 0.482932
rclavicle 7.98866e-015 7.65321e-015
rhumerus -49.2576 18.8695 -79.9247
rradius 25.7094
rwrist -11.9223
rhand -27.47 -23.1512
rfingers 7.12502
rthumb -0.874 -53.1292
lclavicle 7.98866e-015 7.65321e-015
lhumerus -46.9884 -1.96246 88.6233
lradius 32.1247
lwrist -8.85924
lhand -27.5536 36.8919
lfingers 7.12502
lthumb -0.95481 66.8696
rfemur 1.94076 1.25573 47.3255
rtibia -1.02118
rfoot -20.2104 -10.141
rtoes -5.68125
lfemur -33.4707 6.98811 -7.8915
ltibia 59.537
lfoot -22.9954 17.7523
ltoes -66.4956
608
root -2.27898 15.5347 -2.93336 322.085 71.2969 673.893
lowerback 10.0474 0.168831 4.5886
upperback -12.1413 2.49804 5.13648
thorax -19.9965 1.24624 2.75723
lowerneck -11.6442 -3.59267 -1.11433
upperneck 31.2588 -4.73843 1.54366
head 12.2982 -1.75404 0.187931
rclavicle 2.11581e-014 -4.83047e-014
rhumerus -47.3983 18.6557 -79.3706
rradius 25.229
rwrist -11.3874
rhand -27.5142 -23.6152
rfingers 7.12502
rthumb -0.9167 -53.593
lclavicle 2.11581e-014 -4.83047e-014
lhumerus -47.0033 -1.54937 88.0068
lradius 32.1792
lwrist -8.37844
lhand -27.2182 36.6718
lfingers 7.12502
lthumb -0.630824 66.6507
rfemur 2.80724 2.01934 47.5652
rtibia -1.74547
rfoot -20.3908 -11.1958
rtoes -7.4219
lfemur -35.9933 5.73342 -8.37375
ltibia 56.305
lfoot -22.9894 17.2714
ltoes -66.4765
609
root -2.06994 15.5532 -2.87796 322.401 71.5128 673.832
lowerback 9.68471 0.30643 4.6771
upperback -12.2036 2.66716 5.02689
thorax -19.8183 1.29985 2.53196
lowerneck -12.9311 -3.70078 0.178017
upperneck 31.7745 -4.48282 -0.892194
head 12.6624 -1.79669 -0.956584
rclavicle 5.65294e-015 6.59468e-014
rhumerus -45.8808 18.6395 -79.2161
rradius 25.1148
rwrist -11.3154
rhand -27.3516 -24.0844
rfingers 7.12502
rthumb -0.759696 -54.0628
lclavicle 5.65294e-015 6.59468e-014
lhumerus -47.1203 -1.53844 87.5713
lradius 32.1866
lwrist -8.03114
lhand -27.1261 36.759
lfingers 7.12502
lthumb -0.541906 66.7381
rfemur 3.68856 3.22351 47.6803
rtibia -2.53011
rfoot -20.9148 -12.5127
rtoes -7.83523
lfemur -38.0412 4.05465 -8.82343
ltibia 52.3008
lfoot -22.4876 16.8637
ltoes -66.6693
610
root -1.85511 15.5752 -2.82775 322.804 71.7682 673.85
lowerback 9.28515 0.442765 4.78958
upperback -12.264 2.82641 4.87446
thorax -19.6059 1.3412 2.24791
lowerneck -14.588 -3.99474 1.71454
upperneck 32.0677 -4.3399 -4.14169
head 12.986 -1.99528 -2.50499
rclavicle -2.22266e-014 -1.49089e-016
rhumerus -45.0118 19.3903 -79.7663
rradius 25.6986
rwrist -12.3135
rhand -27.3223 -24.2549
rfingers 7.12502
rthumb -0.73142 -54.2334
lclavicle -2.22266e-014 -1.49089e-016
lhumerus -47.2529 -1.73204 87.2071
lradius 32.141
lwrist -7.95331
lhand -27.2587 36.1954
lfingers 7.12502
lthumb -0.669913 66.1741
rfemur 4.59458 4.51955 47.7509
rtibia -3.35072
rfoot -21.537 -13.7152
rtoes -7.46602
lfemur -39.5661 1.75124 -8.95933
ltibia 47.4098
lfoot -21.3532 17.1882
ltoes -67.1454
